<svg width="48" height="48" viewBox="0 0 48 48" fill="none" xmlns="http://www.w3.org/2000/svg">
<path fill-rule="evenodd" clip-rule="evenodd" d="M48 24C48 30.3652 45.4714 36.4697 40.9706 40.9706C36.4697 45.4714 30.3652 48 24 48C17.6348 48 11.5303 45.4714 7.02944 40.9706C2.52856 36.4697 0 30.3652 0 24C0 17.6348 2.52856 11.5303 7.02944 7.02944C11.5303 2.52856 17.6348 0 24 0C30.3652 0 36.4697 2.52856 40.9706 7.02944C45.4714 11.5303 48 17.6348 48 24V24ZM30 15C30 16.5913 29.3679 18.1174 28.2426 19.2426C27.1174 20.3679 25.5913 21 24 21C22.4087 21 20.8826 20.3679 19.7574 19.2426C18.6321 18.1174 18 16.5913 18 15C18 13.4087 18.6321 11.8826 19.7574 10.7574C20.8826 9.63214 22.4087 9 24 9C25.5913 9 27.1174 9.63214 28.2426 10.7574C29.3679 11.8826 30 13.4087 30 15V15ZM24 27C21.1278 26.9994 18.3158 27.8235 15.8982 29.3742C13.4807 30.9249 11.5591 33.1372 10.362 35.748C12.05 37.7118 14.1428 39.2873 16.4968 40.3664C18.8509 41.4456 21.4104 42.0028 24 42C26.5896 42.0028 29.1491 41.4456 31.5032 40.3664C33.8572 39.2873 35.95 37.7118 37.638 35.748C36.4409 33.1372 34.5193 30.9249 32.1018 29.3742C29.6842 27.8235 26.8722 26.9994 24 27V27Z" fill="#787491"/>
</svg>
